<svg width="1200" height="700" viewBox="0 0 1200 700" xmlns="http://www.w3.org/2000/svg" role="img" aria-label="Caesars-style hotel skyline at dusk">
  <defs>
    <linearGradient id="sky" x1="0" y1="0" x2="0" y2="1">
      <stop offset="0%" stop-color="#08225d"/>
      <stop offset="45%" stop-color="#173f8f"/>
      <stop offset="100%" stop-color="#233150"/>
    </linearGradient>
    <linearGradient id="glow" x1="0" y1="0" x2="0" y2="1">
      <stop offset="0%" stop-color="#ffd98a"/>
      <stop offset="100%" stop-color="#efb65a"/>
    </linearGradient>
    <linearGradient id="ground" x1="0" y1="0" x2="0" y2="1">
      <stop offset="0%" stop-color="#32263f"/>
      <stop offset="100%" stop-color="#1e1b2f"/>
    </linearGradient>
  </defs>

  <rect width="1200" height="700" fill="url(#sky)"/>
  <rect y="430" width="1200" height="270" fill="url(#ground)"/>

  <rect x="120" y="220" width="520" height="255" rx="6" fill="#d7c9ad"/>
  <rect x="144" y="188" width="472" height="44" fill="#f0e3cb"/>
  <rect x="760" y="200" width="250" height="275" rx="6" fill="#d9cbaf"/>
  <rect x="792" y="166" width="186" height="36" fill="#f2e4cb"/>
  <rect x="996" y="228" width="112" height="245" rx="4" fill="#d8c9ae"/>

  <rect x="70" y="322" width="145" height="165" fill="#b4956a"/>
  <rect x="1040" y="286" width="120" height="188" fill="#b79569"/>

  <g fill="url(#glow)">
    <rect x="160" y="256" width="22" height="16"/>
    <rect x="194" y="256" width="22" height="16"/>
    <rect x="228" y="256" width="22" height="16"/>
    <rect x="262" y="256" width="22" height="16"/>
    <rect x="296" y="256" width="22" height="16"/>
    <rect x="330" y="256" width="22" height="16"/>
    <rect x="364" y="256" width="22" height="16"/>
    <rect x="398" y="256" width="22" height="16"/>
    <rect x="432" y="256" width="22" height="16"/>
    <rect x="466" y="256" width="22" height="16"/>
    <rect x="500" y="256" width="22" height="16"/>
    <rect x="534" y="256" width="22" height="16"/>

    <rect x="160" y="286" width="22" height="16"/>
    <rect x="194" y="286" width="22" height="16"/>
    <rect x="228" y="286" width="22" height="16"/>
    <rect x="262" y="286" width="22" height="16"/>
    <rect x="296" y="286" width="22" height="16"/>
    <rect x="330" y="286" width="22" height="16"/>
    <rect x="364" y="286" width="22" height="16"/>
    <rect x="398" y="286" width="22" height="16"/>
    <rect x="432" y="286" width="22" height="16"/>
    <rect x="466" y="286" width="22" height="16"/>
    <rect x="500" y="286" width="22" height="16"/>
    <rect x="534" y="286" width="22" height="16"/>

    <rect x="804" y="244" width="20" height="14"/>
    <rect x="834" y="244" width="20" height="14"/>
    <rect x="864" y="244" width="20" height="14"/>
    <rect x="894" y="244" width="20" height="14"/>
    <rect x="924" y="244" width="20" height="14"/>
    <rect x="954" y="244" width="20" height="14"/>
  </g>

  <rect x="0" y="486" width="1200" height="10" fill="#4c3554"/>
  <rect x="0" y="512" width="1200" height="6" fill="#6e4d75"/>

  <circle cx="1060" cy="94" r="30" fill="#f8e3b1" fill-opacity="0.9"/>
  <rect x="0" y="0" width="1200" height="700" fill="#000" fill-opacity="0.08"/>
</svg>
