<svg width="1200" height="700" viewBox="0 0 1200 700" xmlns="http://www.w3.org/2000/svg" role="img" aria-label="Abstract machine learning visualization">
  <defs>
    <linearGradient id="bg" x1="0" y1="0" x2="1" y2="1">
      <stop offset="0%" stop-color="#0a142b"/>
      <stop offset="55%" stop-color="#101e3a"/>
      <stop offset="100%" stop-color="#171235"/>
    </linearGradient>
    <radialGradient id="nodeGlow" cx="50%" cy="50%" r="50%">
      <stop offset="0%" stop-color="#7ee6ff" stop-opacity="0.9"/>
      <stop offset="100%" stop-color="#7ee6ff" stop-opacity="0"/>
    </radialGradient>
  </defs>

  <rect width="1200" height="700" fill="url(#bg)"/>

  <g opacity="0.28">
    <circle cx="190" cy="130" r="140" fill="#2746a4"/>
    <circle cx="980" cy="560" r="210" fill="#4a1fa8"/>
    <circle cx="610" cy="340" r="260" fill="#0f5b8c"/>
  </g>

  <g stroke="#6bc7ff" stroke-width="2" stroke-opacity="0.5">
    <path d="M140 120 L320 230 L510 150 L730 250 L910 170 L1060 280" fill="none"/>
    <path d="M180 420 L350 360 L520 470 L690 390 L860 500 L1030 430" fill="none"/>
    <path d="M250 560 L390 470 L560 560 L730 500 L900 580" fill="none"/>
    <path d="M320 230 L350 360"/>
    <path d="M510 150 L520 470"/>
    <path d="M730 250 L690 390"/>
    <path d="M910 170 L860 500"/>
  </g>

  <g>
    <circle cx="320" cy="230" r="8" fill="#89d8ff"/>
    <circle cx="510" cy="150" r="8" fill="#89d8ff"/>
    <circle cx="730" cy="250" r="8" fill="#89d8ff"/>
    <circle cx="910" cy="170" r="8" fill="#89d8ff"/>
    <circle cx="350" cy="360" r="8" fill="#89d8ff"/>
    <circle cx="520" cy="470" r="8" fill="#89d8ff"/>
    <circle cx="690" cy="390" r="8" fill="#89d8ff"/>
    <circle cx="860" cy="500" r="8" fill="#89d8ff"/>
  </g>

  <g opacity="0.45">
    <circle cx="320" cy="230" r="26" fill="url(#nodeGlow)"/>
    <circle cx="520" cy="470" r="26" fill="url(#nodeGlow)"/>
    <circle cx="860" cy="500" r="26" fill="url(#nodeGlow)"/>
  </g>

  <text x="600" y="360" text-anchor="middle" font-family="Arial Black, Arial, sans-serif" font-size="84" fill="#e9f8ff" opacity="0.9">Machine Learning</text>
  <text x="600" y="420" text-anchor="middle" font-family="Arial, Helvetica, sans-serif" font-size="30" fill="#b7dbff" opacity="0.9">feature engineering  •  training  •  evaluation</text>
</svg>
